<svg xmlns="http://www.w3.org/2000/svg" viewBox="0 0 262.23 67.66"><defs><style>.cls-1{fill:#3c3c3c;}.cls-2{fill:#f59100;}</style></defs><title>logo</title><g id="Ebene_2" data-name="Ebene 2"><g id="Ebene_2-2" data-name="Ebene 2"><rect class="cls-1" x="5.17" y="21.96" width="40" height="40"/><path class="cls-2" d="M0,16.79V67.13H50.33V16.79ZM35.34,52.14H15V31.79H35.34Z"/><path class="cls-1" d="M75.54,33.06,64,31q2-7,6.72-10.35t14.17-3.36q8.54,0,12.71,2a12.56,12.56,0,0,1,5.88,5.13q1.71,3.11,1.7,11.42L105,50.72a51.65,51.65,0,0,0,.61,9.38,27.45,27.45,0,0,0,2.29,6.47H95.29c-.33-.85-.74-2.1-1.23-3.77q-.32-1.12-.45-1.5a23,23,0,0,1-7,4.77,20,20,0,0,1-8,1.59q-7.44,0-11.74-4A13.43,13.43,0,0,1,62.64,53.4a13.76,13.76,0,0,1,2-7.29,12.73,12.73,0,0,1,5.48-4.9,42,42,0,0,1,10.14-3q9-1.68,12.4-3.14V33.83q0-3.67-1.81-5.24C89.58,27.54,87.3,27,83.94,27a9.14,9.14,0,0,0-5.31,1.34A9.2,9.2,0,0,0,75.54,33.06ZM92.61,43.41a78.32,78.32,0,0,1-7.76,2c-3.55.75-5.86,1.49-6.95,2.22a5.31,5.31,0,0,0-2.5,4.5,6.27,6.27,0,0,0,2,4.63,7,7,0,0,0,5.09,2,11.07,11.07,0,0,0,6.58-2.27,8,8,0,0,0,3-4.22,24.87,24.87,0,0,0,.5-6.22Z"/><rect class="cls-2" x="114.47" width="12.76" height="11.81"/><rect class="cls-1" x="114.47" y="18.35" width="12.76" height="48.23"/><path class="cls-1" d="M136.1,18.35h11.76v6.58q6.31-7.68,15-7.67a16.2,16.2,0,0,1,8,1.9,14.65,14.65,0,0,1,5.58,5.77,22.36,22.36,0,0,1,6.86-5.77,16.83,16.83,0,0,1,7.86-1.9,17.57,17.57,0,0,1,9,2.15,13.21,13.21,0,0,1,5.49,6.34q1.32,3.09,1.32,10V66.57H194.27V39c0-4.79-.44-7.87-1.32-9.27A6.06,6.06,0,0,0,187.5,27a8.72,8.72,0,0,0-5,1.63,9.06,9.06,0,0,0-3.4,4.79q-1,3.16-1.05,10V66.57H165.25V40.14q0-7-.68-9.08a5.77,5.77,0,0,0-2.11-3,6.64,6.64,0,0,0-3.88-1,9.33,9.33,0,0,0-5.32,1.59,8.73,8.73,0,0,0-3.38,4.59c-.68,2-1,5.31-1,9.94V66.57H136.1Z"/><path class="cls-2" d="M216.49,11.81V0h12.76V11.81Zm0,54.76V18.35h12.76V66.57Z"/><path class="cls-2" d="M261.19,18.35V28.52h-8.72V48a47.69,47.69,0,0,0,.25,6.88,2.81,2.81,0,0,0,1.13,1.62,3.63,3.63,0,0,0,2.16.63,16.46,16.46,0,0,0,5.13-1.23l1.09,9.9a25.24,25.24,0,0,1-10.08,1.91,15.85,15.85,0,0,1-6.22-1.16,9.14,9.14,0,0,1-4.07-3,11.88,11.88,0,0,1-1.79-5,62.11,62.11,0,0,1-.41-9v-21H233.8V18.35h5.86V8.76l12.81-7.44v17Z"/></g></g></svg>